<svg xmlns="http://www.w3.org/2000/svg" version="1.1" xmlns:xlink="http://www.w3.org/1999/xlink" xmlns:svgjs="http://svgjs.dev/svgjs" viewBox="0 0 5.617065606392664 4.397151915382104"><g transform="matrix(0.8404872401960259,0,0,0.8404872401960259,2.80182937325464,3.8533414356189293)"><g transform="matrix(1,0,0,1,0,0)"><path d=" M -2.3613643555853887 -1.5700554376432914 L -2.3413711473232492 -1.5695342626374398 Q -2.341205366919505 -1.5375190706677242 -2.3351375436141373 -1.5208552919745575 Q -2.3290697203087696 -1.5041915132813908 -2.3117059568308607 -1.498737183085736 Q -2.2943421933529518 -1.4932828528900808 -2.257354758067994 -1.4923186791292553 L -1.761523193166939 -1.4793935389841348 Q -1.7255354182950884 -1.4784554239736019 -1.7073982077325538 -1.4834844987404239 Q -1.6892609971700192 -1.4885135735072457 -1.682846094686696 -1.5043517876152017 Q -1.676431192203373 -1.5201900017231575 -1.6735979913677963 -1.5521270174419954 L -1.653604783105657 -1.5516058424361436 Q -1.6563076901897706 -1.5246671287828408 -1.65787592915832 -1.4836940812206014 Q -1.6594441681268695 -1.4427210336583622 -1.6605386356391578 -1.4007352963078696 Q -1.6618155144034943 -1.3517519360656283 -1.662397122334083 -1.310252999546543 Q -1.6629787302646715 -1.2687540630274576 -1.6616569369460648 -1.2427107747860913 L -1.681650145208204 -1.2432319497919428 Q -1.6828155860250553 -1.275273200511951 -1.6883966084990158 -1.291424119623418 Q -1.6939776309729764 -1.3075750387348848 -1.7118281952822925 -1.3135422285122398 Q -1.7296787595916088 -1.3195094182895946 -1.7656665344634594 -1.3204475333001273 L -2.2614980993645144 -1.3333726734452478 Q -2.298485534649472 -1.3343368472060733 -2.316122915005453 -1.329294743064105 Q -2.3337602953614347 -1.324252638922137 -2.3406880574264575 -1.307927623982774 Q -2.3476158194914802 -1.2916026090434107 -2.349423301163657 -1.2606391949873874 L -2.3694165094257964 -1.261160369993239 Q -2.3677393215050824 -1.2871254819837274 -2.365658222954833 -1.328585330377374 Q -2.3635771244045842 -1.3700451787710204 -2.3623002456402475 -1.4190285390132618 Q -2.3612057781279594 -1.4610142763637544 -2.36113702977907 -1.5020264120514326 Q -2.3610682814301813 -1.5430385477391106 -2.3613643555853887 -1.5700554376432914 M -2.0994686417633255 -2.4942240301351415 L -2.0807390119374567 -2.4872096900674006 Q -2.0882160300806687 -2.455839414332462 -2.0821214834936934 -2.4364717479294287 Q -2.0760269369067186 -2.4171040815263947 -2.052670880160424 -2.4024840742328304 Q -2.0293148234141296 -2.3878640669392657 -1.983427230340751 -2.3706789337733 L -1.4608705581990067 -2.17497884588332 Q -1.4660156437309448 -2.164091784991186 -1.4703996062732831 -2.152385766350018 Q -1.4747835688156214 -2.14067974770885 -1.4787571253717469 -2.127218289827354 L -2.1460331250531275 -1.9136796744688809 L -1.7864242323964432 -1.7790043451682498 Q -1.7349177503753037 -1.7597149099819616 -1.7051872443618246 -1.754987647329804 Q -1.6754567383483454 -1.7502603846776463 -1.6565610211377426 -1.765074292706824 Q -1.6376653039271398 -1.7798882007360013 -1.617551348321642 -1.8193398013359778 L -1.598821718495773 -1.8123254612682365 Q -1.607358304542714 -1.7952337469404351 -1.6186987723933595 -1.7663781792120317 Q -1.6300392402440051 -1.7375226114836284 -1.6395085993354557 -1.7122376112187052 Q -1.6475750904133581 -1.690698536918956 -1.655524057749001 -1.6680476226262198 Q -1.6634730250846437 -1.6453967083334833 -1.6672115341562497 -1.6297115704660141 L -1.6859411639821187 -1.6367259105337553 Q -1.6794006273302 -1.668446903272081 -1.6850269331715284 -1.6876392111734209 Q -1.6906532390128568 -1.7068315190747607 -1.7144775365047977 -1.721626884870019 Q -1.7383018339967387 -1.736422250665277 -1.7832529455788242 -1.7532566668278557 L -2.204669616660876 -1.911079318352033 Q -2.2393194318387337 -1.9240558474773541 -2.2576368014549977 -1.9250427468345137 Q -2.275954171071262 -1.9260296461916733 -2.287828131320556 -1.9128573621073472 Q -2.29970209156985 -1.8996850780230212 -2.311510800166142 -1.8710048687963114 L -2.330240429992011 -1.8780192088640526 Q -2.3236924764465248 -1.8926521957213607 -2.314338786873942 -1.9147770345090165 Q -2.304985097301359 -1.936901873296672 -2.2969186062234566 -1.9584409475964213 Q -2.288501398142167 -1.9809165033874643 -2.281722105558945 -2.001869813199307 Q -2.2749428129757234 -2.02282312301115 -2.2695663884060497 -2.040030506857819 L -1.6871372367482826 -2.235156833372756 L -1.980255943523132 -2.344931255432906 Q -2.0317624255442714 -2.3642206906191943 -2.0614929315577504 -2.3689479532713515 Q -2.0912234375712297 -2.3736752159235093 -2.1105873955274794 -2.359036666396025 Q -2.1299513534837287 -2.3443981168685415 -2.1491288275979334 -2.304595799265178 L -2.1678584574238022 -2.3116101393329194 Q -2.160258352868155 -2.329052570664108 -2.1484496442718624 -2.357732779890817 Q -2.13664093567557 -2.3864129891175274 -2.1271715765841193 -2.4116979893824504 Q -2.11875436850283 -2.4341735451734934 -2.1114490004145274 -2.456531577222276 Q -2.104143632326225 -2.478889609271059 -2.0994686417633255 -2.4942240301351415 M -1.7408929770925832 -2.975158153948371 Q -1.7005326618196073 -3.0181935457912017 -1.6695246535692578 -3.0329838610125304 Q -1.6385166453189084 -3.047774176233859 -1.612571175198941 -3.0549736609552736 Q -1.5992564035688472 -3.058938110026513 -1.5915729080434706 -3.0620144546937302 Q -1.583889412518094 -3.0650907993609477 -1.5791009005365544 -3.070196693308402 Q -1.5681557302930353 -3.081867308045441 -1.5961454819785728 -3.1163430067415074 L -1.5804117997535143 -3.1331195154260008 Q -1.5672370178935007 -3.1193927123407574 -1.54893367194561 -3.100170653993332 Q -1.5306303259977192 -3.080948595645906 -1.4996075854620372 -3.0511687439059165 Q -1.4685848449263552 -3.021388892165927 -1.4175259054518103 -2.973503772350532 L -1.4332595876768686 -2.9567272636660387 Q -1.4739253781331247 -2.9893814132732155 -1.5233480985697048 -3.0083127287226934 Q -1.5727708190062848 -3.0272440441721713 -1.6207160113878576 -3.0221687582202295 Q -1.6686612037694304 -3.017093472268287 -1.7049170802010867 -2.978434560951846 Q -1.7377525909316434 -2.9434227167407294 -1.739264695909708 -2.9023409259017785 Q -1.7407768008877729 -2.8612591350628276 -1.7057649566766564 -2.828423624332271 Q -1.676588419834059 -2.8010606987234734 -1.64211867452931 -2.7961528826485043 Q -1.6076489292245608 -2.7912450665735347 -1.5616179509573405 -2.8008575084985963 Q -1.51558697269012 -2.810469950423658 -1.4502452399775567 -2.8245929092538717 Q -1.3947979131939872 -2.8383984861181704 -1.346191317812617 -2.84490992877182 Q -1.297584722431247 -2.8514213714254693 -1.2534039167846562 -2.8415190276413855 Q -1.2092231111380656 -2.831616683857302 -1.1698347864005594 -2.7946767342854253 Q -1.1216935006102742 -2.74952790703091 -1.1139292468420696 -2.6949479989747127 Q -1.1061649930738655 -2.640368090918516 -1.1287907003732855 -2.584813366824151 Q -1.1514164076727056 -2.5292586427297867 -1.197249308067441 -2.4803879435184366 Q -1.2396618427610766 -2.435164311412411 -1.2737255100019933 -2.416384892515648 Q -1.3077891772429098 -2.3976054736188845 -1.3343733802222522 -2.3882630889151204 Q -1.3596347772019997 -2.381793017614771 -1.3678436548846389 -2.373040056561992 Q -1.3787888251281577 -2.361369441824953 -1.3507990734426203 -2.3268937431288865 L -1.3665327556676787 -2.310117234444393 Q -1.3826705314927972 -2.327993816651801 -1.405669724396765 -2.3502488638493717 Q -1.4286689173007328 -2.372503911046942 -1.4658916719154667 -2.4080983844788006 Q -1.5031144265302006 -2.4436928579106594 -1.56073808679433 -2.497734635988034 L -1.5450044045692715 -2.5145111446725275 Q -1.4941268262181064 -2.472279971102272 -1.4395302014128044 -2.4464399138293267 Q -1.3849335766075022 -2.420599856556382 -1.3330672909717625 -2.4247397133596844 Q -1.2812010053360225 -2.4288795701629864 -1.237420324361947 -2.475562029111142 Q -1.2018485210705105 -2.513491527006518 -1.1976454638124112 -2.5589044580910136 Q -1.1934424065543117 -2.604317389175509 -1.2342895581339477 -2.6426254850278252 Q -1.2795131902399732 -2.685038019721461 -1.33778550568234 -2.682107618215641 Q -1.3960578211247068 -2.6791772167098213 -1.472571425485014 -2.660451075948993 Q -1.5273346791283635 -2.647374912505759 -1.5779934939303935 -2.638675229588915 Q -1.6286523087324234 -2.6299755466720707 -1.6745886375104089 -2.639467843464777 Q -1.7205249662883944 -2.6489601402574836 -1.7606427044469655 -2.68658416296958 Q -1.806595749974056 -2.7296807708034354 -1.8145886896102579 -2.780362255745888 Q -1.8225816292464596 -2.83104374068834 -1.8015754242358994 -2.8819479581074727 Q -1.780569219225339 -2.9328521755266053 -1.7408929770925832 -2.975158153948371 M -0.7399419940688863 -3.6260943532799397 Q -0.7210643771127017 -3.5785482117114 -0.7017046872653177 -3.535694362304222 Q -0.6823449974179336 -3.492840512897044 -0.6713310211947815 -3.4703974220280074 Q -0.6616387221184075 -3.450647502063255 -0.6519298175051244 -3.433133588416952 Q -0.6422209128918411 -3.4156196747706487 -0.6351553625721145 -3.403492102932914 L -0.6558030061716282 -3.3933592448076144 Q -0.707173544437603 -3.46171908534476 -0.7507551668866375 -3.4949138467493825 Q -0.7943367893356716 -3.5281086081540054 -0.8338908534205464 -3.5315329350031286 Q -0.8734449175054211 -3.5349572618522513 -0.9147402047044486 -3.5146915456016514 L -0.9353878483039624 -3.5045586874763517 L -0.6838286313671657 -2.9919584920275537 Q -0.6662062694101221 -2.956049546637095 -0.6497644375361278 -2.941839825857737 Q -0.6333226056621336 -2.9276301050783795 -0.6098113282446003 -2.9319277595777304 Q -0.586300050827067 -2.9362254140770805 -0.5463596518486363 -2.954712288595067 L -0.5375484708701146 -2.936757815899838 Q -0.5658184625966461 -2.9239982090178906 -0.6124917888357877 -2.9022071416329585 Q -0.6591651150749294 -2.8804160742480263 -0.7094376386215716 -2.8557447675081655 Q -0.7588124385334523 -2.8315140198172304 -0.8023603375878381 -2.8090289027850908 Q -0.8459082366422239 -2.7865437857529507 -0.8723993866361418 -2.7724292906504067 L -0.8812105676146637 -2.790383763345636 Q -0.8412535630993236 -2.8111066441820713 -0.8234695533178295 -2.827074705933321 Q -0.8056855435363353 -2.8430427676845706 -0.8073149354367654 -2.8645217127712086 Q -0.8089443273371955 -2.886000657857847 -0.8265666892942389 -2.9219096032483054 L -1.0781259062310355 -3.4345097986971034 L -1.097875826195788 -3.4248174996207292 Q -1.1391711133948155 -3.4045517833701293 -1.1606622564737203 -3.371169441194032 Q -1.1821533995526254 -3.337787099017935 -1.1823316529139853 -3.2836740855577777 Q -1.1825099062753452 -3.2295610720976207 -1.1612214125423341 -3.1453245002622263 L -1.181869056141848 -3.135191642136926 Q -1.1862414355572903 -3.1486408911214387 -1.1946037547184312 -3.166815643341131 Q -1.2029660738795722 -3.1849903955608236 -1.2126583729559464 -3.204740315525576 Q -1.2236723491790986 -3.2271834063946123 -1.245725209930767 -3.268715578655012 Q -1.2677780706824353 -3.3102477509154125 -1.2938374767167116 -3.354269420092543 Q -1.252101630468758 -3.3736374127083812 -1.202735133325332 -3.396750157240092 Q -1.153368636181906 -3.4198629017718023 -1.1039938362700252 -3.444093649462737 Q -1.0546190363581445 -3.4683243971536717 -1.01511919642864 -3.48770899530642 Q -0.974721632864374 -3.507534152508094 -0.925795694769874 -3.5315446206745653 Q -0.876869756675374 -3.5555550888410377 -0.8279355158124194 -3.580683560166734 Q -0.7790012749494648 -3.6058120314924302 -0.7399419940688863 -3.6260943532799397 M -0.13109956576966275 -3.718263482326555 L 0.15505867529036732 -3.110778123594816 Q 0.1715405563622856 -3.075844649729036 0.18994130504752782 -3.0636007758395123 Q 0.20834205373276993 -3.0513569019499887 0.22237770963284853 -3.0513378374649878 L 0.2237755525881855 -3.0313867463902566 Q 0.19370913168055515 -3.0312850910647247 0.15327322618034123 -3.0289532363570353 Q 0.11283732068012742 -3.0266213816493464 0.07193758397692873 -3.0237558035909053 Q 0.02605007450504715 -3.0205407647936307 -0.014814716124268157 -3.0171764094583216 Q -0.05567950675358346 -3.0138120541230125 -0.07948103174772714 -3.0101395334691348 L -0.0808788747030641 -3.030090624543866 Q -0.03014337675803347 -3.0356502331874484 -0.017759718572976146 -3.052055872765217 Q -0.0053760603879187685 -3.0684615123429864 -0.028891650998759233 -3.1179389516282137 L -0.23097577384555812 -3.5699201539953473 L -0.21483698772023824 -3.597114631052301 L -0.33878798937252247 -3.1914594213120644 Q -0.3615474979423992 -3.1156834041980876 -0.35839281905039067 -3.077811277229982 Q -0.3552381401583822 -3.039939150261876 -0.33035328687385235 -3.0281495753328374 Q -0.30546843358932263 -3.016360000403798 -0.2654264671443267 -3.0171605772069987 L -0.26402862418898976 -2.997209486132268 Q -0.29708770875782975 -2.9968981543634348 -0.3270492914438098 -2.9953001672072976 Q -0.3570108741297899 -2.9937021800511605 -0.3879350652956231 -2.991535523470388 Q -0.4098812654778273 -2.9899978962195175 -0.42929863320180667 -2.9881362220611956 Q -0.44871600092578606 -2.986274547902874 -0.4635395349363007 -2.983231056578898 L -0.4649373778916377 -3.003182147653629 Q -0.4442683008542374 -3.008640100971679 -0.42392962007067075 -3.0331214829584905 Q -0.40359093928710404 -3.057602864945302 -0.3864863617858131 -3.1139361005039166 L -0.19993082997748501 -3.7134409241306425 Q -0.18390006496993333 -3.7135616439411754 -0.16544530572580707 -3.714854648674862 Q -0.1469905464816808 -3.716147653408549 -0.13109956576966275 -3.718263482326555 M -0.031776260650493826 -3.3021879109934082 L -0.030378417695156812 -3.282236819918677 L -0.32764967470865014 -3.2614089598841565 L -0.3190719721266216 -3.282058972436556 L -0.031776260650493826 -3.3021879109934082 M 1.0859088151451173 -3.456203245769494 L 1.0770599841828767 -3.4382672988861622 Q 1.046126432933101 -3.4524135141778043 1.0275566093474577 -3.454327058532682 Q 1.0089867857618142 -3.4562406028875596 0.9958632746048544 -3.443201298653317 Q 0.9827397634478945 -3.4301619944190738 0.9663694261677496 -3.3969804926849103 L 0.7416091197268405 -2.9414074418482867 Q 0.7278934317353677 -2.9136067241791226 0.7252923965624369 -2.89816377705012 Q 0.7226913613895062 -2.882720829921117 0.7325859177951949 -2.872263882300772 Q 0.7424804742008836 -2.8618069346804265 0.7666940024933813 -2.849861012881402 L 0.8106370723575438 -2.8281813770239124 Q 0.8518897501892065 -2.8078290658107594 0.8979080139425901 -2.816347833393223 Q 0.9439262776959736 -2.824866600975686 0.9891379081518787 -2.858872607379242 Q 1.034349538607784 -2.8928786137827975 1.0725186542248433 -2.947642823016672 L 1.0931449931406747 -2.937466667410095 Q 1.0754115884723663 -2.9083028823527672 1.0515197448743168 -2.859875825767772 Q 1.0413435892677403 -2.8392494868519407 1.0227729584949776 -2.799347962160499 Q 1.004202327722215 -2.7594464374690575 0.9878915616817827 -2.715084754552668 Q 0.9430397802255112 -2.7394428681947143 0.885865970972906 -2.768207525945967 Q 0.8286921617203007 -2.7969721836972203 0.7838522945119717 -2.8190942611028214 Q 0.7533611848103079 -2.83413727373863 0.7031405335369794 -2.858914000432904 Q 0.6529198822636507 -2.8836907271271772 0.5962004288071001 -2.9111161459861514 Q 0.5394809753505494 -2.938541564845126 0.49016903566933 -2.960639813754842 L 0.4990178666315705 -2.9785757606381735 Q 0.5286002647411252 -2.966211225786922 0.5456036715364626 -2.964512945082129 Q 0.5626070783318001 -2.962814664377336 0.5755034115907327 -2.9765235880577183 Q 0.5883997448496654 -2.990232511738101 0.6043276405816983 -3.0225172161280978 L 0.823778648445263 -3.4673286988347223 Q 0.840148985725408 -3.5005102005688857 0.8429593274244522 -3.5186375826064173 Q 0.8457696691234964 -3.5367649646439485 0.8338483830074761 -3.5498944329248796 Q 0.8219270968914556 -3.5630239012058107 0.7945688207704036 -3.5776363865414504 L 0.8034176517326441 -3.5955723334247818 Q 0.8253951437886966 -3.583614497377815 0.8630665893676643 -3.563913934238887 Q 0.9007380349466321 -3.5442133710999593 0.9437843074666279 -3.522976176790582 Q 0.9832433906099576 -3.503508748673653 1.0217997192851493 -3.4856017802230586 Q 1.060356047960341 -3.467694811772464 1.0859088151451173 -3.456203245769494 M 1.7378754992297152 -2.966741371074179 L 1.7241386467994904 -2.9522052476119134 Q 1.7001940066383545 -2.97345740532716 1.6837372277421623 -2.980066068456859 Q 1.66728044884597 -2.9866747315865583 1.6516266721039572 -2.9773898366646323 Q 1.635972895361944 -2.9681049417427063 1.6105597183660278 -2.9412131133375152 L 1.2698857780964508 -2.5807172514733314 Q 1.245159443722046 -2.5545522292412537 1.2367937104869664 -2.537692083706903 Q 1.2284279772518871 -2.5208319381725524 1.235935820292632 -2.505481619189693 Q 1.243443663333377 -2.490131300206833 1.2653277756299792 -2.4666987239722467 L 1.2515909231997542 -2.4521626005099812 Q 1.2333408417687184 -2.4721609636370117 1.2038852099818298 -2.500684914205529 Q 1.1744295781949412 -2.5292088647740467 1.1439037189241836 -2.558056254877519 Q 1.1082902164416333 -2.59171154333157 1.0777843389466768 -2.61985210903773 Q 1.0472784614517203 -2.64799267474389 1.0270078157077527 -2.6643969705569557 L 1.0407446681379777 -2.678933094019221 Q 1.065376150920625 -2.658407742477088 1.0811261054195047 -2.6517790975715876 Q 1.0968760599183847 -2.6451504526660874 1.11323666105771 -2.6544553293638145 Q 1.1295972621970354 -2.6637602060615415 1.1543235965714402 -2.6899252282936197 L 1.4949975368410173 -3.050421090157803 Q 1.5204107138369336 -3.077312918562994 1.5284330257612573 -3.093809661010788 Q 1.536455337685581 -3.1103064034585826 1.5289275128690352 -3.1263635468387543 Q 1.5213996880524892 -3.142420690218926 1.4995555393074889 -3.164439617658888 L 1.5132923917377137 -3.178975741121153 Q 1.5315025096171477 -3.160391026788748 1.5609781231798374 -3.131160251822918 Q 1.5904537367425269 -3.1019294768570878 1.6260672392250772 -3.068274188403037 Q 1.6565930984958348 -3.039426798299565 1.6870789942149902 -3.011993056990717 Q 1.7175648899341458 -2.984559315681869 1.7378754992297152 -2.966741371074179 M 2.2262188249555095 -2.212354784244562 Q 2.179495426896813 -2.191523939954217 2.1374802620528417 -2.1704057979162936 Q 2.09546509720887 -2.1492876558783705 2.0734974823461254 -2.137353507511515 Q 2.05416598126691 -2.1268514569486823 2.0370692553113887 -2.1164254336606882 Q 2.019972529355867 -2.1059994103726942 2.008148030967404 -2.0984375826927457 L 1.997168614469897 -2.118647788366471 Q 2.0633419454539323 -2.172805800391261 2.094703005185394 -2.2177249937557875 Q 2.1260640649168554 -2.262644187120314 2.127847067325383 -2.3023061449944677 Q 2.129630069733911 -2.341968102868622 2.107671236738897 -2.3823885142160726 L 2.0966918202413902 -2.402598719889798 L 1.5949514967762992 -2.1300227711908235 Q 1.5598033129959075 -2.110928133803855 1.5462868315504423 -2.0939118260570377 Q 1.5327703501049774 -2.07689551831022 1.5380381867381705 -2.053582434061113 Q 1.5433060233713638 -2.0302693498120052 1.5634314199025192 -1.9911289817189002 L 1.5458573280123233 -1.981581663025416 Q 1.5319376886319327 -2.009298871389894 1.5082320475907205 -2.055029523941822 Q 1.4845264065495085 -2.1007601764937505 1.4577939142077527 -2.149967633786299 Q 1.4315387878006711 -2.1982963864843375 1.407269152407125 -2.240875545680643 Q 1.382999517013579 -2.2834547048769487 1.367799834378843 -2.309338476777568 L 1.3853739262690388 -2.3188857954710524 Q 1.407734097923888 -2.279821454652786 1.4244250942857084 -2.2627141275544433 Q 1.4411160906475289 -2.2456068004561005 1.4625091100151184 -2.2481244823935063 Q 1.483902129382708 -2.250642164330912 1.5190503131630997 -2.2697368017178805 L 2.020790636628191 -2.542312750416855 L 2.010288586065358 -2.56164425149607 Q 1.9883297530703445 -2.6020646628435204 1.9540858671039705 -2.622154617396032 Q 1.9198419811375969 -2.6422445719485435 1.8657680258716907 -2.6401812343850795 Q 1.811694070605785 -2.638117896821615 1.7284115932483166 -2.6133584750754837 L 1.7174321767508098 -2.633568680749209 Q 1.7306887729432954 -2.6384943946456283 1.7485015478008283 -2.6476023610418573 Q 1.7663143226583613 -2.6567103274380868 1.7856458237375765 -2.6672123780009196 Q 1.8076134386003213 -2.6791465263677745 1.8481965056402703 -2.7029007821892272 Q 1.8887795726802192 -2.72665503801068 1.9316840432615217 -2.7545155190571036 Q 1.9527641716620256 -2.713617741774979 1.9779019105072604 -2.665250975439521 Q 2.003039649352495 -2.616884209104063 2.0292947757595767 -2.568555456406025 Q 2.055549902166658 -2.520226703707986 2.0765540032923235 -2.4815637015495553 Q 2.098035470352663 -2.442021994796615 2.1240519137924077 -2.394132594395831 Q 2.150068357232152 -2.3462431939950474 2.177202188233743 -2.2983918072316833 Q 2.2043360192353347 -2.250540420468319 2.2262188249555095 -2.212354784244562 M 2.3795838565543392 -1.348081403221662 Q 2.3354062588030486 -1.347498430730767 2.2944716683185566 -1.3447399344253639 Q 2.253537077834064 -1.3419814381199608 2.2316556162336285 -1.3397007280926552 Q 2.2117633784150503 -1.3376273553405595 2.1939640330159347 -1.3347667079727445 Q 2.1761646876168195 -1.331906060604929 2.1643330135632772 -1.329667425062743 L 2.161948634898367 -1.3525434985541076 Q 2.2335186165601293 -1.3700574280085465 2.273612580534907 -1.395350194816257 Q 2.3137065445096847 -1.4206429616239675 2.32763935324118 -1.4557766611281695 Q 2.341572161972675 -1.4909103606323715 2.3369070732804595 -1.5356678957241723 L 2.3326566591386633 -1.5764469832522572 Q 2.3295466000105196 -1.6062853399801242 2.3230703453106054 -1.6201888692105695 Q 2.3165940906106917 -1.6340923984410145 2.3016538750041984 -1.6375622626503896 Q 2.2867136593977055 -1.6410321268597645 2.2548860788879805 -1.6377147304564112 L 1.7376878956049513 -1.58380703890192 Q 1.7068549269861555 -1.5805933111361716 1.6924540918102458 -1.5740652221174554 Q 1.6780532566343362 -1.5675371330987389 1.6745833924249611 -1.5525969174922458 Q 1.6711135282155862 -1.5376567018857528 1.67422358734373 -1.5078183451578857 L 1.6793033505863646 -1.4590823625023694 Q 1.6839684392785803 -1.414324827410569 1.7069399391490592 -1.3820322556068152 Q 1.729911439019538 -1.3497396838030615 1.7791980795145137 -1.3302441184427285 Q 1.8284847200094896 -1.3107485530823957 1.9094013635726639 -1.3061120895087033 L 1.9117857422375741 -1.2832360160173384 Q 1.879647155815035 -1.2829024552867718 1.827927337486732 -1.2775116861313225 Q 1.8050512639953673 -1.2751273074664125 1.7633812332139582 -1.2697786127960824 Q 1.721711202432549 -1.2644299181257523 1.6774720105287724 -1.2547917699788922 Q 1.6741741337927858 -1.3057243136914758 1.6680366469315437 -1.3694313090297279 Q 1.6618991600703015 -1.4331383043679802 1.656715728190062 -1.4828688989144252 Q 1.653190994511499 -1.516685703206008 1.6473855508056308 -1.5723839690980264 Q 1.6415801070997627 -1.628082234990045 1.6345516769851962 -1.6906909497997633 Q 1.62752324687063 -1.7532996646094818 1.6199359166581135 -1.806801369444433 L 1.6398281544766915 -1.8088747421965288 Q 1.6451347746619027 -1.7772544989620136 1.6527611442091528 -1.7619627205327797 Q 1.6603875137564028 -1.7466709421035462 1.6788607052999494 -1.7430666121803233 Q 1.697333896843496 -1.7394622822571006 1.7331399249169366 -1.7431943532108731 L 2.226467422817672 -1.7946139974628492 Q 2.2632680627820414 -1.7984497370542265 2.280103593366471 -1.8057343036124194 Q 2.2969391239509003 -1.813018870170612 2.301693568721459 -1.8301038125153701 Q 2.306448013492018 -1.8471887548601282 2.3042288976171985 -1.8781253921165288 L 2.3241211354357763 -1.8801987648686247 Q 2.328724629975506 -1.8263860541208592 2.334261142253679 -1.7636218363547336 Q 2.3397976545318517 -1.700857618588608 2.3456030982377203 -1.6451593526965895 Q 2.3514085419435884 -1.5894610868045709 2.3549332756221513 -1.5556442825129881 Q 2.359702032951972 -1.5098921355302588 2.3662639541973167 -1.4517591742297205 Q 2.372825875442661 -1.3936262129291819 2.3795838565543392 -1.348081403221662 M 2.0232542823903072 -1.4677861841457323 Q 2.0232542823903072 -1.4677861841457323 2.0133081634810184 -1.4667494977696844 Q 2.0033620445717295 -1.4657128113936366 2.0033620445717295 -1.4657128113936366 L 1.9852200329908911 -1.6397698923061945 Q 1.9852200329908911 -1.6397698923061945 1.9951661519001802 -1.6408065786822423 Q 2.005112270809469 -1.6418432650582904 2.005112270809469 -1.6418432650582904 L 2.0232542823903072 -1.4677861841457323 M 2.1575494424834614 -1.4526266994726265 Q 2.100441890150095 -1.4506960346928692 2.0706553677410304 -1.4470886696192609 Q 2.0408688453319654 -1.4434813045456527 2.016003548058743 -1.440889588605533 Q 1.9911382507855204 -1.4382978726654132 1.9614035626952582 -1.4341932016463406 Q 1.931668874604996 -1.430088530627268 1.8753906713724677 -1.4202009707200793 L 1.8730062927075575 -1.443077044211444 Q 1.9072993657020452 -1.4516785059822563 1.9357381958222475 -1.46821582563794 Q 1.9641770259424498 -1.484753145293624 1.9799856299845149 -1.5115363123625352 Q 1.9957942340265797 -1.5383194794314465 1.991647488522388 -1.5781039550686025 L 2.011539726340966 -1.5801773278206983 Q 2.0156864718451577 -1.5403928521835422 2.0400559807481087 -1.518802876828554 Q 2.064425489651059 -1.4972129014735658 2.096108844613253 -1.4874448403384362 Q 2.127792199575447 -1.4776767792033065 2.1551650638185516 -1.4755027729639913 L 2.1575494424834614 -1.4526266994726265" fill="#202020" fill-rule="nonzero"></path></g><g transform="matrix(1,0,0,1,0,0)"><g clip-path="url(#SvgjsClipPath30240)"><g clip-path="url(#SvgjsClipPath30238aea2f3a2-aa01-4019-8200-7da2681f5027)"><path d=" M 0.04454284363488159 -1.3466758328651862 C -0.29273906145821393 -1.423852959165032 -0.6430967917000171 -1.4238529591650324 -0.9803786967931126 -1.3466758328651862 C -1.090740276169448 -1.3178528774266929 -1.1790864270825663 -1.1964930650540904 -1.1790864270825663 -1.090113604521231 L -1.1790864270825663 -0.8828537999536457 C -1.1790864270825663 -0.7764743394207867 -1.090740276169448 -0.655304151755016 -0.9803786967931126 -0.6262915716096908 C -0.949280244872634 -0.6190858327500677 -0.9178025435384899 -0.6133970915451019 -0.8863058797336626 -0.6075187256333039 L -0.6202624160480982 -0.23130330727823623 C -0.5722873652195543 -0.16341766223231202 -0.5328454261984579 -0.17574326817640396 -0.5328454261984579 -0.2589885144757358 L -0.5328454261984579 -0.5703522830941943 C -0.3387225634447484 -0.5645075126206582 -0.1446420898981846 -0.5833038815294687 0.04475143081239885 -0.6262915716096913 C 0.15511301018873147 -0.655304151755016 0.24347812357253407 -0.7764743394207867 0.24347812357253407 -0.8828537999536457 L 0.24347812357253407 -1.090113604521231 C 0.24309887415886955 -1.1964930650540904 0.1547147983043855 -1.3176632527198606 0.04454284363488159 -1.3466758328651862 Z M 0.9805303965585794 -2.434173526547804 C 0.5221227009182152 -2.5477591008944986 0.04292100050035019 -2.5477591008944986 -0.41548669514001313 -2.4341735265478035 C -0.5254690251026856 -2.403833573454653 -0.6138341384864863 -2.2830426352025475 -0.6138341384864863 -2.1757150511355268 L -0.6138341384864863 -1.8095497422425653 C -0.6138341384864863 -1.702222158175545 -0.5254690251026847 -1.581431219923439 -0.4154866951400139 -1.551091266830288 C -0.16047268898974054 -1.4882246697213404 0.10190918271015392 -1.4603469945613958 0.3644397240607866 -1.4682252699446205 L 0.3644397240607866 -1.0362601877808886 C 0.36443972406078906 -0.9530149414815563 0.4036920383750524 -0.9404997108306319 0.4518567139104295 -1.0083853558765568 L 0.8094889109959431 -1.5139248242911787 C 0.8667555724592642 -1.5245438078737814 0.9240222339225863 -1.5368694138178738 0.9807200212654108 -1.5509016421234558 C 1.0907023512280822 -1.5812415952166066 1.1790674646118828 -1.7020325334687127 1.1790674646118828 -1.809360117535733 L 1.1790674646118828 -2.1755254264286945 C 1.1789347273171005 -2.2830426352025475 1.090512726521249 -2.4040231981614855 0.9805303965585794 -2.434173526547804 Z" fill="url(#gradient-7d8a12f8-7ca7-4905-a434-1c520b43172e_0)" transform="matrix(1,0,0,1,0,0)" fill-rule="nonzero"></path></g></g></g></g><defs><clipPath id="SvgjsClipPath30240"><path d=" M -1.1790864270825663 -2.5193719073275074 h 2.3581728541651326 v 2.3318719073275074 h -2.3581728541651326 Z"></path></clipPath><clipPath id="SvgjsClipPath30238aea2f3a2-aa01-4019-8200-7da2681f5027"><path d=" M -1.1790864270825663 -2.5193719073275074 L 1.1790864270825663 -2.5193719073275074 L 1.1790864270825663 -0.1875 L -1.1790864270825663 -0.1875 Z"></path></clipPath><linearGradient id="gradient-7d8a12f8-7ca7-4905-a434-1c520b43172e_0" x1="0" x2="1" y1="0" y2="1"><stop stop-color="#1192dc" offset="0"></stop><stop stop-color="#202020" offset="1"></stop></linearGradient></defs></svg>